<?xml version="1.0" encoding="UTF-8"?>
<svg width="20px" height="12px" viewBox="0 0 20 12" version="1.1" xmlns="http://www.w3.org/2000/svg" xmlns:xlink="http://www.w3.org/1999/xlink">
    <!-- Generator: Sketch 49 (51002) - http://www.bohemiancoding.com/sketch -->
    <title>icon_eye_close</title>
    <desc>Created with Sketch.</desc>
    <defs></defs>
    <g id="Page-1" stroke="none" stroke-width="1" fill="none" fill-rule="evenodd">
        <g id="六六脑-科学健脑云-登录-密码" transform="translate(-1081.000000, -396.000000)" fill="#BFC5D1" fill-rule="nonzero">
            <g id="登录" transform="translate(740.000000, 200.000000)">
                <g id="icon_eye_close" transform="translate(341.000000, 192.000000)">
                    <path d="M14.4194029,11.5906434 C15.1490087,11.3023053 15.87639,10.8241447 16.5159073,10.4408954 L17.7916052,11.7828687 C18.1552959,12.1661181 18.6135239,12.1661181 18.9772146,11.7828687 C19.3409053,11.4008208 19.3409053,10.9202574 18.9772146,10.5370081 L17.7916052,9.29114738 C18.6135239,8.42733462 19.3409053,7.37369931 19.7068204,6.22395132 C19.7980211,5.84190339 19.890334,5.45745265 19.9815347,5.17031601 C20.0278061,4.93913855 19.9862885,4.69757273 19.8662839,4.49974086 C19.7462794,4.30190899 19.55782,4.16434943 19.3431297,4.11788211 C18.8871261,4.02176942 18.4322347,4.31010748 18.3410339,4.78826808 C18.2498332,5.07660614 18.2498332,5.36374279 18.1575203,5.65208084 C17.1532001,8.52344731 13.9645115,10.8241447 10.0428804,10.8241447 C5.75755869,10.8241447 2.56887003,8.23510925 1.65797501,4.78586527 C1.56677429,4.21159197 1.11077068,3.92205251 0.655879269,4.0181652 C0.199875658,4.11427788 -0.0737265081,4.69095399 0.0174742141,5.1691146 C0.381164899,6.70091052 1.2030836,8.13779516 2.29638006,9.28994597 L1.11077068,10.5334038 C0.747079991,10.9166532 0.747079991,11.4909265 1.11077068,11.7792645 C1.47446136,12.1625138 1.93268938,12.1625138 2.29638006,11.7792645 L3.6643909,10.4372912 C4.30279595,10.9166532 5.03240173,11.3011039 5.7597831,11.5870391 L4.57528592,13.6018013 C4.30057154,13.9838492 4.48297299,14.5593239 4.85000029,14.847662 C5.21369097,15.136 5.7597831,14.9437747 6.03449747,14.5593239 L7.31130758,12.1625138 C7.93454115,12.3525807 8.57892821,12.449594 9.22652275,12.4508519 L9.22652275,15.1347986 C9.22652275,15.6141607 9.59021343,15.9998128 10.0473292,15.9998128 C10.2629974,16.0046438 10.4714422,15.9157999 10.6259487,15.7531922 C10.7804551,15.5905846 10.8681025,15.3678113 10.8692479,15.1347986 L10.8692479,12.4520533 C11.507653,12.4520533 12.1449459,12.2598279 12.7833509,12.1637153 L14.060161,14.4632112 C14.3348754,14.8452592 14.7897668,15.0374845 15.2457704,14.7515493 C15.6094611,14.4632112 15.7918625,13.9838492 15.5204848,13.5056886 C15.5138116,13.6018013 14.4194029,11.5906434 14.4194029,11.5906434 Z" id="Shape"></path>
                </g>
            </g>
        </g>
    </g>
</svg>