<?xml version="1.0" encoding="utf-8"?>
<!-- Generator: Adobe Illustrator 21.0.0, SVG Export Plug-In . SVG Version: 6.00 Build 0)  -->
<svg version="1.1" id="图层_1" xmlns="http://www.w3.org/2000/svg" xmlns:xlink="http://www.w3.org/1999/xlink" x="0px" y="0px"
	 viewBox="0 0 20 20" style="enable-background:new 0 0 20 20;" xml:space="preserve">
<style type="text/css">
	.st0{fill:#BFC5D1;}
</style>
<title>icon_eye</title>
<desc>Created with Sketch.</desc>
<g id="Page-1">
	<g id="六六脑-科学健脑云-登录-密码" transform="translate(-1080.000000, -392.000000)">
		<g id="登录" transform="translate(740.000000, 200.000000)">
			<g id="icon_eye" transform="translate(340.000000, 192.000000)">
				<path id="Shape" class="st0" d="M20,10c0,1.9-4.1,6-10,6c-5.7,0-10-4-10-6c0-2,4.3-6,10-6C15.9,4,20,8,20,10L20,10z M10,5.1
					c-2.7,0-4.8,2.2-4.8,4.9c0,2.7,2.2,4.9,4.8,4.9c2.7,0,4.8-2.2,4.8-4.9C14.8,7.3,12.7,5.1,10,5.1z M10,6.9c1.7,0,3.1,1.4,3.1,3.1
					c0,1.7-1.4,3.1-3.1,3.1S6.9,11.7,6.9,10C6.9,8.3,8.3,6.9,10,6.9z"/>
			</g>
		</g>
	</g>
</g>
</svg>
